<?xml version="1.0" encoding="utf-8" ?>
<svg xmlns="http://www.w3.org/2000/svg" xmlns:xlink="http://www.w3.org/1999/xlink" width="1024" height="1024">
	<path fill="#FEFEFE" d="M0 0L1024 0L1024 1024L0 1024L0 0Z"/>
	<path fill="#183654" d="M435.398 61.0391C451.874 61.5053 468.463 61.262 484.95 61.3027L588.318 61.2412L601.696 148.083C630.769 153.891 677.342 173.396 702.456 189.681C713.556 180.94 725.33 173.014 736.706 164.63C749.213 155.413 761.645 145.321 775.055 137.479C783.65 147.23 793.763 156.08 802.956 165.278L846.026 208.397C859.78 221.913 873.961 235.256 887.116 249.348L834.187 321.376C852.748 353.46 866.249 386.703 876.362 422.321C897.394 425.927 918.655 428.314 939.745 431.571C947.306 432.738 955.102 433.623 962.556 435.326C963.218 486.512 962.557 537.813 962.516 589.01C933.792 594.269 904.624 597.069 875.903 602.399C867.11 636.375 851.494 672.021 834.326 702.635C852.14 726.496 869.191 751 886.49 775.24C871.03 791.311 855.015 806.914 839.204 822.638L775.151 886.494C761.671 877.602 748.848 867.48 735.737 858.036C725.068 850.349 713.591 843.208 703.627 834.653C674.451 853.771 635.238 866.285 601.668 875.209L587.726 960.873L587.325 961.836C584.84 962.854 451.698 961.984 435.186 962.138C431.417 933.415 426.131 904.7 423.188 875.899Q416.512 874.175 409.896 872.233Q403.281 870.291 396.732 868.133Q390.184 865.975 383.71 863.603Q377.236 861.23 370.843 858.647Q364.451 856.064 358.146 853.272Q351.842 850.48 345.633 847.483Q339.423 844.486 333.316 841.286Q327.208 838.086 321.209 834.688C315.923 840.098 308.45 844.47 302.338 848.995L249.594 887.299C241.239 878.33 232.273 869.952 223.586 861.309C194.497 832.369 164.403 804.295 135.854 774.839C140.55 768.197 145.873 761.974 150.789 755.49Q170.442 729.744 189.518 703.568C185.56 694.981 180.41 686.731 176.166 678.229C165.669 657.203 152.351 624.66 149.165 601.316L103.605 594.833C90.3977 592.832 76.8305 590.183 63.5032 589.351L63.9248 493.542C63.918 473.726 63.3574 453.855 63.7769 434.047L116.291 427.501C127.059 426.139 137.928 424.543 148.757 423.834C153.054 394.867 173.311 346.88 189.405 322.031C171.696 297.983 154.638 273.399 137.059 249.243C152.571 233.298 168.962 218.047 184.786 202.393C206.761 180.652 228.312 158.516 250.539 137.025C273.455 155.751 298.954 171.198 322.079 189.646C346.638 173.033 393.117 155.525 421.996 148.767L435.398 61.0391Z"/>
	<path fill="#FEFEFE" d="M462.664 93.5836C495.228 93.6143 528.026 92.8494 560.559 94.0287C564.125 112.04 566.709 130.395 569.466 148.548C570.765 157.101 571.837 165.746 573.594 174.218Q577.987 175.049 582.357 175.989Q586.728 176.929 591.074 177.976Q595.42 179.023 599.739 180.178Q604.058 181.333 608.347 182.594Q612.636 183.855 616.892 185.221Q621.149 186.588 625.37 188.06Q629.591 189.531 633.775 191.107Q637.959 192.682 642.102 194.36Q646.246 196.039 650.346 197.819Q654.447 199.6 658.502 201.481Q662.558 203.362 666.566 205.343Q670.573 207.324 674.531 209.403Q678.488 211.483 682.393 213.659Q686.298 215.836 690.148 218.108Q693.997 220.381 697.79 222.748Q701.582 225.115 705.315 227.575C727.807 212.412 749.457 195.633 771.324 179.564C780.917 188.653 790.122 198.081 799.578 207.305Q822.707 229.702 845.521 252.419C838.365 260.844 832.093 270.27 825.569 279.201Q811.07 299.024 796.211 318.579C815.534 347.216 830.959 380.787 841.282 413.714C845.134 425.998 848.096 438.494 851.285 450.957Q890.991 457.432 930.816 463.135Q930.194 512.23 930.908 561.322C904.092 565.437 877.177 569.338 850.418 573.775Q848.943 580.709 847.222 587.586Q845.501 594.464 843.537 601.275Q841.573 608.087 839.368 614.824Q837.163 621.562 834.72 628.217Q832.277 634.872 829.599 641.436Q826.92 648 824.01 654.464Q821.101 660.929 817.963 667.286Q814.825 673.643 811.463 679.884C806.857 688.522 802.214 697.099 796.533 705.09C802.476 712.07 807.555 720.213 812.957 727.648Q829.206 749.725 845.035 772.105C836.481 779.606 828.604 788.157 820.552 796.217L771.868 845.224C762.396 837.805 752.418 831.029 742.778 823.836C730.511 814.684 718.452 805.131 705.931 796.334C700.958 800.02 695.32 803.091 690.01 806.286Q683.28 810.296 676.376 813.996Q669.472 817.696 662.407 821.08Q655.342 824.464 648.131 827.525Q640.92 830.585 633.578 833.315Q626.236 836.046 618.778 838.441Q611.319 840.836 603.76 842.891Q596.201 844.946 588.557 846.656Q580.912 848.366 573.198 849.728C571.082 865.992 568.172 882.16 565.509 898.34C563.836 908.509 562.585 918.74 560.672 928.869C560.599 929.204 560.245 929.777 560.087 930.092C555.481 931.198 540.434 930.34 534.533 930.358L462.676 930.593C461.458 916.445 458.865 902.211 456.816 888.157C454.975 875.534 453.639 862.741 451.266 850.213C406.271 842.007 356.122 822.459 318.83 795.799C297 812.832 274.063 828.436 252.164 845.363C241.769 834.102 230.576 823.674 219.713 812.882Q199.196 792.122 178.278 771.765C195.238 749.858 210.986 727.039 228.236 705.363C224.401 700.333 221.163 694.71 217.873 689.312C196.649 654.489 180.157 613.5 174.226 573.005C147.788 569.303 121.223 565.977 94.8474 561.907Q95.3884 512.313 94.5579 462.723C103.77 461.059 113.179 460.113 122.462 458.867L174.302 451.826C179.403 414.914 198.228 367.561 217.763 335.831C220.956 330.645 224.15 325.21 228.035 320.511C219.782 310.177 212.428 299.112 204.797 288.318C196.315 276.32 187.513 264.449 179.644 252.038C185 247.937 189.631 242.656 194.384 237.874L217.858 214.305L239.098 193.433C243.714 188.938 249.012 184.476 252.79 179.25C274.828 195.579 297.828 210.589 319.713 227.124C328.248 222.232 336.271 216.506 344.947 211.838Q354.309 206.763 363.95 202.241Q373.59 197.719 383.478 193.765Q393.365 189.811 403.466 186.438Q413.566 183.066 423.846 180.286C432.764 177.9 441.866 176.411 450.809 174.157C454.539 147.295 458.153 120.322 462.664 93.5836Z"/>
	<path fill="#183654" d="M499.407 202.712C499.778 202.679 500.149 202.649 500.521 202.634Q504.39 202.478 508.262 202.419Q512.134 202.361 516.006 202.399Q519.878 202.437 523.747 202.572Q527.617 202.707 531.483 202.939Q535.348 203.17 539.206 203.499Q543.064 203.827 546.913 204.252Q550.762 204.678 554.599 205.199Q558.436 205.72 562.259 206.337Q566.082 206.954 569.888 207.667Q573.694 208.379 577.481 209.187Q581.268 209.995 585.033 210.897Q588.799 211.799 592.541 212.796Q596.283 213.792 599.999 214.881Q603.714 215.971 607.402 217.153Q611.089 218.336 614.745 219.61Q618.402 220.884 622.026 222.249Q625.649 223.615 629.237 225.07Q632.825 226.526 636.376 228.071Q639.927 229.616 643.438 231.249Q646.948 232.883 650.417 234.603Q653.886 236.324 657.311 238.131Q660.736 239.938 664.114 241.831Q667.492 243.723 670.822 245.699Q674.152 247.675 677.432 249.734Q680.711 251.793 683.938 253.934Q687.165 256.074 690.337 258.294Q693.51 260.515 696.625 262.814Q699.741 265.114 702.798 267.49Q705.855 269.867 708.852 272.319Q711.849 274.771 714.783 277.298Q717.717 279.824 720.588 282.424Q723.458 285.023 726.262 287.693Q728.598 289.922 730.887 292.198Q733.175 294.475 735.416 296.799Q737.657 299.123 739.849 301.493Q742.041 303.863 744.184 306.278Q746.326 308.693 748.418 311.152Q750.509 313.611 752.549 316.113Q754.589 318.615 756.577 321.159Q758.564 323.703 760.499 326.288Q762.433 328.873 764.313 331.497Q766.193 334.122 768.018 336.785Q769.843 339.448 771.612 342.148Q773.381 344.848 775.094 347.585Q776.806 350.321 778.462 353.093Q780.117 355.865 781.714 358.67Q783.312 361.476 784.851 364.314Q786.389 367.152 787.868 370.021Q789.348 372.891 790.767 375.79Q792.186 378.69 793.545 381.618Q794.903 384.547 796.201 387.503Q797.498 390.459 798.734 393.442Q799.969 396.424 801.143 399.432Q802.316 402.439 803.427 405.471Q804.537 408.502 805.584 411.556Q806.632 414.609 807.615 417.684Q808.599 420.759 809.518 423.854Q810.437 426.948 811.292 430.062Q812.147 433.175 812.936 436.305Q813.726 439.435 814.451 442.581Q815.175 445.727 815.834 448.887Q816.493 452.048 817.086 455.221Q817.679 458.395 818.206 461.58Q818.733 464.765 819.193 467.96C821.063 481.082 821.613 494.452 821.981 507.688C823.779 572.214 802.195 639.542 765.27 692.267C755.801 705.788 744.7 718.359 733.353 730.321C680.938 785.573 600.424 820.602 524.375 822.543C443.49 824.602 367.541 798.15 306.896 744.159Q304.016 741.606 301.2 738.982Q298.384 736.359 295.633 733.667Q292.882 730.974 290.199 728.215Q287.516 725.456 284.901 722.631Q282.287 719.806 279.743 716.918Q277.199 714.029 274.727 711.079Q272.256 708.129 269.857 705.119Q267.459 702.108 265.136 699.04Q262.812 695.971 260.566 692.846Q258.319 689.721 256.15 686.542Q253.981 683.362 251.891 680.13Q249.801 676.898 247.791 673.615Q245.782 670.332 243.854 667.001Q241.926 663.67 240.081 660.292Q238.236 656.914 236.475 653.492Q234.714 650.07 233.037 646.605Q231.361 643.14 229.771 639.635Q228.181 636.13 226.678 632.587Q225.174 629.044 223.759 625.465Q222.344 621.885 221.017 618.272Q219.691 614.659 218.454 611.014Q217.217 607.37 216.07 603.696Q214.924 600.021 213.868 596.32Q212.812 592.619 211.848 588.893Q210.884 585.166 210.013 581.418Q209.141 577.669 208.362 573.899Q207.583 570.13 206.897 566.343Q206.212 562.556 205.62 558.752Q205.028 554.949 204.53 551.133Q204.032 547.316 203.628 543.489Q203.224 539.661 202.915 535.824Q202.606 531.988 202.392 528.145Q202.201 524.349 202.103 520.55Q202.005 516.751 202 512.951Q201.994 509.15 202.082 505.351Q202.169 501.551 202.349 497.755Q202.529 493.959 202.802 490.168Q203.075 486.377 203.44 482.595Q203.805 478.812 204.263 475.039Q204.721 471.266 205.27 467.506Q205.82 463.745 206.461 459.999Q207.102 456.253 207.834 452.524Q208.567 448.795 209.39 445.084Q210.213 441.374 211.127 437.685Q212.04 433.996 213.044 430.331Q214.047 426.665 215.139 423.025Q216.232 419.385 217.413 415.773Q218.594 412.16 219.863 408.578Q221.132 404.996 222.488 401.445Q223.844 397.895 225.286 394.379Q226.729 390.863 228.256 387.383Q229.784 383.903 231.396 380.461Q233.009 377.02 234.704 373.619Q236.4 370.218 238.178 366.859Q239.957 363.5 241.816 360.186Q243.676 356.871 245.616 353.604Q247.556 350.336 249.576 347.116Q251.595 343.896 253.692 340.727Q255.79 337.558 257.964 334.441Q260.138 331.323 262.387 328.26Q264.637 325.197 266.961 322.19Q269.284 319.182 271.681 316.233Q274.077 313.283 276.545 310.393Q279.012 307.502 281.55 304.673C337.418 242.109 416.305 207.345 499.407 202.712Z"/>
	<path fill="#FEFEFE" d="M509.57 228.739C590.358 228.954 658.538 257.935 715.708 314.79C767.024 365.825 795.408 438.594 795.564 510.629Q795.604 514.147 795.557 517.666Q795.509 521.184 795.372 524.7Q795.236 528.216 795.011 531.727Q794.786 535.239 794.473 538.744Q794.16 542.248 793.759 545.744Q793.358 549.24 792.869 552.724Q792.38 556.209 791.804 559.68Q791.228 563.151 790.564 566.606Q789.901 570.062 789.151 573.5Q788.401 576.937 787.565 580.355Q786.728 583.773 785.806 587.169Q784.884 590.564 783.878 593.936Q782.87 597.307 781.779 600.652Q780.688 603.997 779.512 607.314Q778.337 610.63 777.079 613.916Q775.82 617.202 774.48 620.456Q773.139 623.709 771.717 626.927Q770.296 630.146 768.793 633.328Q767.291 636.51 765.709 639.653Q764.127 642.796 762.467 645.898Q760.806 649 759.068 652.059Q757.33 655.119 755.516 658.134Q753.702 661.149 751.812 664.117Q749.923 667.085 747.959 670.005Q745.996 672.925 743.959 675.794Q741.923 678.664 739.815 681.481Q737.707 684.298 735.529 687.062Q733.351 689.825 731.104 692.533Q728.857 695.241 726.543 697.891Q724.229 700.542 721.849 703.133Q719.468 705.725 717.024 708.256Q714.579 710.786 712.072 713.255Q709.659 715.71 707.187 718.106Q704.714 720.501 702.184 722.835Q699.653 725.169 697.066 727.44Q694.479 729.711 691.837 731.917Q689.195 734.124 686.499 736.265Q683.804 738.406 681.056 740.48Q678.309 742.554 675.511 744.56Q672.714 746.566 669.868 748.503Q667.022 750.44 664.129 752.306Q661.236 754.172 658.299 755.966Q655.361 757.761 652.38 759.483Q649.399 761.204 646.377 762.852Q643.354 764.5 640.292 766.073Q637.23 767.646 634.131 769.144Q631.031 770.641 627.895 772.062Q624.76 773.483 621.59 774.826Q618.421 776.17 615.219 777.435Q612.018 778.7 608.786 779.885Q605.554 781.071 602.294 782.177Q599.034 783.284 595.748 784.309Q592.462 785.335 589.152 786.28Q585.842 787.224 582.509 788.087Q579.177 788.95 575.824 789.731Q572.471 790.512 569.1 791.21Q565.729 791.908 562.342 792.523Q558.955 793.138 555.554 793.67Q552.153 794.202 548.74 794.65Q545.327 795.098 541.904 795.462Q538.481 795.825 535.049 796.105Q531.618 796.385 528.182 796.58Q524.745 796.775 521.304 796.886Q517.863 796.997 514.421 797.023C440.09 797.425 371.055 769.121 317.087 718.21Q314.574 715.817 312.12 713.364Q309.667 710.91 307.273 708.398Q304.879 705.886 302.547 703.317Q300.215 700.748 297.945 698.123Q295.676 695.497 293.471 692.818Q291.266 690.139 289.127 687.407Q286.988 684.675 284.915 681.892Q282.843 679.109 280.838 676.277Q278.834 673.444 276.899 670.564Q274.963 667.684 273.099 664.758Q271.234 661.832 269.44 658.861Q267.647 655.891 265.926 652.877Q264.205 649.864 262.558 646.81Q260.91 643.756 259.338 640.664Q257.765 637.571 256.267 634.44Q254.77 631.31 253.349 628.145Q251.927 624.979 250.583 621.78Q249.239 618.581 247.973 615.35Q246.707 612.12 245.52 608.859Q244.332 605.599 243.224 602.311Q242.116 599.022 241.088 595.708Q240.06 592.394 239.113 589.056Q238.165 585.718 237.299 582.358Q236.433 578.998 235.648 575.618Q234.863 572.238 234.161 568.84Q233.459 565.442 232.839 562.028Q232.219 558.614 231.682 555.185Q231.145 551.757 230.691 548.317Q230.237 544.877 229.867 541.427Q229.497 537.977 229.21 534.519Q228.924 531.061 228.721 527.597Q228.519 524.133 228.4 520.665Q228.293 517.136 228.274 513.605Q228.256 510.074 228.325 506.544Q228.394 503.013 228.552 499.486Q228.709 495.959 228.954 492.436Q229.2 488.914 229.533 485.399Q229.866 481.884 230.287 478.378Q230.708 474.872 231.216 471.378Q231.725 467.884 232.32 464.404Q232.915 460.923 233.597 457.459Q234.279 453.994 235.047 450.548Q235.816 447.102 236.67 443.676Q237.524 440.25 238.463 436.846Q239.402 433.442 240.426 430.063Q241.45 426.684 242.558 423.331Q243.666 419.979 244.857 416.655Q246.048 413.331 247.322 410.038Q248.596 406.745 249.951 403.484Q251.307 400.224 252.744 396.999Q254.18 393.773 255.697 390.585Q257.213 387.396 258.809 384.246Q260.405 381.097 262.079 377.988Q263.753 374.879 265.504 371.812Q267.254 368.746 269.081 365.725Q270.908 362.703 272.81 359.728Q274.712 356.753 276.687 353.827Q278.663 350.9 280.71 348.023Q282.758 345.147 284.877 342.323Q286.996 339.498 289.185 336.728Q291.374 333.957 293.631 331.242Q295.888 328.527 298.213 325.869Q300.537 323.211 302.927 320.612Q305.317 318.013 307.771 315.474Q309.736 313.422 311.743 311.411Q313.749 309.399 315.795 307.429Q317.842 305.458 319.928 303.529Q322.013 301.6 324.138 299.713Q326.262 297.827 328.424 295.983Q330.585 294.14 332.784 292.34Q334.982 290.541 337.217 288.786Q339.451 287.032 341.72 285.322Q343.99 283.613 346.293 281.95Q348.596 280.286 350.933 278.67Q353.269 277.053 355.637 275.484Q358.006 273.915 360.406 272.394Q362.805 270.873 365.235 269.401Q367.665 267.929 370.124 266.506Q372.583 265.083 375.07 263.71Q377.557 262.336 380.071 261.014Q382.586 259.691 385.126 258.419Q387.667 257.147 390.232 255.927Q392.798 254.707 395.388 253.538Q397.977 252.37 400.59 251.254Q403.203 250.138 405.837 249.075Q408.472 248.012 411.128 247.003Q413.783 245.993 416.459 245.037Q419.134 244.081 421.828 243.179Q424.522 242.277 427.234 241.43Q429.946 240.583 432.674 239.79Q435.402 238.998 438.146 238.261Q440.89 237.523 443.648 236.841Q446.406 236.16 449.177 235.534Q451.948 234.907 454.731 234.337Q457.515 233.767 460.309 233.253Q463.103 232.739 465.907 232.282C480.378 229.952 494.934 229.115 509.57 228.739Z"/>
	<path fill="#183654" d="M652.364 434.21C653.294 434.083 654.259 434.089 655.197 434.061C666.988 433.698 678.409 437.314 687.048 445.568C697.475 455.531 700.55 467.323 700.853 481.261L677.87 481.071C677.338 474.798 676.972 469.269 672.992 463.98C669.671 459.567 664.648 456.895 659.218 456.139C652.521 455.206 645.284 456.691 639.978 461.014C635.891 464.344 633.029 469.211 632.456 474.482C629.816 498.779 656.971 498.682 673.02 504.742C680.549 507.585 687.253 511.799 692.258 518.188Q692.852 518.951 693.407 519.742Q693.962 520.533 694.476 521.351Q694.991 522.169 695.465 523.011Q695.938 523.854 696.369 524.719Q696.8 525.584 697.187 526.469Q697.575 527.355 697.918 528.259Q698.26 529.162 698.558 530.082Q698.855 531.001 699.106 531.934Q699.358 532.868 699.562 533.812Q699.767 534.757 699.924 535.71Q700.081 536.664 700.19 537.624Q700.3 538.584 700.362 539.549Q700.423 540.513 700.437 541.48Q700.45 542.446 700.416 543.412Q700.381 544.378 700.298 545.34Q700.216 546.303 700.085 547.261C698.647 558.555 693.266 568.701 684.212 575.708C672.48 584.789 658.961 586.143 644.664 584.377Q643.7 584.231 642.742 584.044Q641.785 583.857 640.836 583.629Q639.888 583.401 638.95 583.132Q638.012 582.863 637.087 582.554Q636.162 582.246 635.25 581.898Q634.339 581.549 633.444 581.162Q632.548 580.775 631.67 580.35Q630.792 579.925 629.934 579.462Q629.075 579 628.236 578.501Q627.398 578.002 626.582 577.468Q625.766 576.933 624.974 576.364Q624.182 575.795 623.414 575.192Q622.647 574.59 621.907 573.955Q621.166 573.32 620.454 572.654Q619.741 571.987 619.058 571.291Q618.375 570.595 617.722 569.87C610.014 561.285 605.21 549.435 606.046 537.788C606.322 533.939 607.594 530.112 610.693 527.624C613.453 525.408 617.285 524.68 620.74 525.177C624.771 525.757 627.492 528.346 629.839 531.474C629.896 534.502 629.745 537.533 629.804 540.561C629.923 546.615 633.39 553.194 637.778 557.216C642.704 561.731 649.437 563.597 656.019 563.366C662.189 563.15 668.365 560.656 672.511 555.992C676.257 551.779 677.819 545.868 677.357 540.302C675.897 522.715 654.555 522.428 641.688 518.508C635.426 516.599 629.569 513.734 624.514 509.538Q623.749 508.907 623.016 508.238Q622.284 507.569 621.586 506.864Q620.888 506.159 620.226 505.42Q619.564 504.681 618.94 503.91Q618.316 503.139 617.732 502.337Q617.148 501.535 616.604 500.706Q616.061 499.876 615.56 499.019Q615.059 498.163 614.602 497.283Q614.145 496.403 613.732 495.5Q613.319 494.598 612.953 493.677Q612.586 492.755 612.266 491.816Q611.946 490.877 611.674 489.923Q611.401 488.969 611.177 488.003Q610.953 487.037 610.777 486.06Q610.602 485.084 610.476 484.1Q610.35 483.116 610.273 482.127C609.285 470.586 612.548 459.471 620.053 450.62C628.554 440.594 639.387 435.306 652.364 434.21Z"/>
	<path fill="#183654" d="M379.94 432.907C386.946 433.55 400.05 431.213 405.743 434.905Q406.211 435.206 406.644 435.554Q407.078 435.901 407.473 436.292Q407.869 436.683 408.221 437.113Q408.574 437.543 408.88 438.007Q409.186 438.471 409.442 438.964Q409.698 439.458 409.901 439.975Q410.105 440.492 410.253 441.028Q410.402 441.564 410.494 442.112Q410.593 442.666 410.636 443.227Q410.678 443.787 410.664 444.35Q410.649 444.912 410.577 445.47Q410.506 446.028 410.378 446.576Q410.25 447.123 410.067 447.655Q409.883 448.187 409.647 448.698Q409.411 449.208 409.124 449.692Q408.838 450.176 408.503 450.628C405.988 454.028 402.731 455.228 398.682 455.742C399.302 491.433 398.732 527.167 398.736 562.863C401.484 563.031 403.674 563.426 405.796 565.306C408.353 567.569 409.747 571.806 409.935 575.128C410.089 577.86 409.293 580.344 407.383 582.329C405.615 584.166 403.255 585.376 400.79 585.967C394.441 587.488 378.638 586.37 371.153 586.435C369.817 585.736 368.421 584.942 367.261 583.97C364.905 581.997 363.404 578.842 363.211 575.793C363.014 572.704 364.043 569.648 366.218 567.422C369.188 564.384 372.152 564.082 376.154 563.932C376.205 537.364 375.468 510.66 376.399 484.112C369.886 495.487 362.629 506.499 355.624 517.577C351.479 524.133 347.249 532.666 341.708 538.097C340.082 538.419 338.957 538.473 337.309 538.291C333.396 534.138 330.335 527.763 327.31 522.88Q315.528 504.275 304.599 485.156C305.13 490.04 304.95 495.037 304.958 499.946L305.007 563.589C306.689 563.9 308.541 564.193 310.105 564.901C312.56 566.013 314.866 568.497 315.801 571.016C316.984 574.203 316.295 577.946 314.794 580.914C313.419 583.633 310.369 585.29 307.529 586.07C301.389 587.758 280.203 587.817 274.97 584.504C272.448 582.907 270.584 580.453 270.073 577.478C269.544 574.404 270.172 570.585 272.164 568.11C274.711 564.948 278.486 564.398 282.257 563.989L282.113 456.007C280.705 456.002 279.169 456.045 277.79 455.743C275.022 455.138 272.385 453.131 270.915 450.731Q270.619 450.238 270.372 449.719Q270.126 449.2 269.931 448.659Q269.737 448.118 269.597 447.561Q269.457 447.003 269.372 446.434Q269.288 445.866 269.26 445.292Q269.231 444.718 269.26 444.144Q269.288 443.569 269.373 443.001Q269.458 442.432 269.598 441.875C270.55 438.02 272.758 435.845 276.003 433.768C283.545 433.337 291.192 433.525 298.75 433.482C313.083 454.211 326.813 476.685 339.797 498.348C343.83 490.359 349.008 482.962 353.752 475.391C362.571 461.315 371.578 447.258 379.94 432.907Z"/>
	<path fill="#183654" d="M510.272 272.231Q522.751 272.203 535.166 273.458C599.368 279.879 658.089 309.931 698.993 360.179Q700.84 362.48 702.63 364.827Q704.42 367.173 706.152 369.562Q707.884 371.952 709.556 374.384Q711.228 376.815 712.84 379.287Q714.452 381.759 716.002 384.27Q717.553 386.781 719.041 389.329Q720.529 391.878 721.954 394.462Q723.379 397.046 724.74 399.665Q726.1 402.284 727.396 404.935Q728.692 407.586 729.922 410.269Q731.152 412.951 732.316 415.663Q733.48 418.375 734.577 421.115Q735.673 423.855 736.702 426.621Q737.73 429.387 738.691 432.177Q739.651 434.968 740.542 437.781Q741.434 440.594 742.255 443.429Q743.077 446.263 743.828 449.117Q744.58 451.97 745.261 454.842Q745.942 457.713 746.552 460.601Q747.162 463.488 747.701 466.389Q748.24 469.291 748.707 472.205Q749.174 475.119 749.569 478.043Q749.965 480.968 750.288 483.901Q750.611 486.834 750.861 489.775Q751.112 492.715 751.29 495.661Q751.468 498.607 751.574 501.556Q751.68 504.505 751.712 507.456Q751.745 510.407 751.705 513.358Q751.666 516.308 751.553 519.257Q751.44 522.206 751.255 525.152Q751.07 528.097 750.813 531.037Q750.555 533.976 750.225 536.909C743.17 604.151 712.431 659.49 659.906 701.941C612.474 740.276 547.553 758.646 487.034 752.158Q484.088 751.828 481.151 751.426Q478.215 751.024 475.288 750.551Q472.362 750.078 469.449 749.533Q466.535 748.988 463.635 748.373Q460.736 747.757 457.852 747.071Q454.969 746.384 452.103 745.628Q449.237 744.871 446.39 744.045Q443.543 743.219 440.718 742.323Q437.892 741.428 435.089 740.463Q432.286 739.499 429.507 738.467Q426.729 737.434 423.976 736.334Q421.224 735.234 418.499 734.068Q415.774 732.901 413.078 731.668Q410.383 730.435 407.718 729.136Q405.054 727.838 402.421 726.475Q399.789 725.112 397.191 723.685Q394.593 722.258 392.031 720.768Q389.468 719.278 386.943 717.726Q384.418 716.173 381.931 714.56Q379.444 712.947 376.998 711.273Q374.551 709.6 372.146 707.867Q369.741 706.134 367.379 704.343Q365.017 702.552 362.7 700.704Q360.382 698.856 358.111 696.952Q355.839 695.047 353.615 693.088Q351.39 691.129 349.214 689.117Q347.038 687.104 344.912 685.038Q342.786 682.973 340.711 680.856Q338.635 678.74 336.613 676.573Q334.59 674.406 332.62 672.191Q330.651 669.976 328.736 667.713Q326.822 665.45 324.963 663.141C318.057 654.557 294.346 622.256 295.662 612.647C296.029 609.968 297.586 607.61 299.753 606.016C302.233 604.192 305.686 603.59 308.684 604.119C310.537 604.446 312.575 605.277 313.924 606.626C317.612 610.314 320.145 616.672 322.847 621.201Q327.041 628.172 331.589 634.917C362.404 681.138 414.278 715.019 468.591 725.88C494.289 731.422 523.422 731.713 549.271 727.04Q551.941 726.559 554.599 726.012Q557.256 725.465 559.899 724.852Q562.542 724.239 565.169 723.56Q567.796 722.882 570.405 722.138Q573.015 721.395 575.605 720.587Q578.195 719.779 580.764 718.907Q583.333 718.035 585.88 717.099Q588.427 716.164 590.949 715.165Q593.472 714.167 595.969 713.106Q598.467 712.045 600.937 710.923Q603.407 709.8 605.848 708.617Q608.29 707.434 610.701 706.19Q613.112 704.946 615.492 703.643Q617.872 702.34 620.219 700.978Q622.565 699.616 624.877 698.197Q627.189 696.777 629.466 695.301Q631.742 693.824 633.981 692.291Q636.219 690.759 638.419 689.171Q640.619 687.583 642.779 685.941Q644.939 684.299 647.058 682.604Q649.177 680.909 651.252 679.162Q653.328 677.415 655.36 675.617Q657.392 673.819 659.378 671.971Q661.365 670.123 663.305 668.227Q665.245 666.33 667.137 664.386Q669.03 662.441 670.873 660.451Q672.717 658.46 674.51 656.424Q676.304 654.389 678.046 652.309Q679.789 650.229 681.479 648.107Q683.169 645.985 684.807 643.821Q686.444 641.657 688.026 639.454Q689.609 637.25 691.137 635.008Q692.629 632.818 694.069 630.592Q695.508 628.366 696.893 626.107Q698.279 623.847 699.609 621.555Q700.94 619.262 702.215 616.939Q703.49 614.615 704.708 612.261Q705.927 609.907 707.088 607.525Q708.25 605.143 709.354 602.733Q710.457 600.323 711.503 597.888Q712.548 595.452 713.535 592.992Q714.521 590.532 715.448 588.049Q716.375 585.566 717.242 583.061Q718.109 580.557 718.916 578.032Q719.722 575.507 720.467 572.963Q721.213 570.42 721.897 567.859Q722.58 565.298 723.202 562.722Q723.824 560.145 724.384 557.555Q724.944 554.964 725.441 552.36Q725.938 549.757 726.373 547.142Q726.807 544.528 727.179 541.903Q727.55 539.279 727.858 536.647Q728.166 534.014 728.41 531.375Q728.655 528.736 728.836 526.091Q729.017 523.447 729.134 520.799Q729.251 518.151 729.304 515.501Q729.358 512.851 729.347 510.201Q729.337 507.55 729.262 504.901Q729.188 502.252 729.05 499.605Q728.912 496.958 728.71 494.315Q728.508 491.672 728.243 489.035Q727.978 486.398 727.649 483.768Q727.32 481.138 726.928 478.516Q726.536 475.895 726.081 473.284Q725.611 470.659 725.076 468.047Q724.541 465.434 723.941 462.836Q723.342 460.237 722.677 457.655Q722.013 455.072 721.285 452.507Q720.557 449.942 719.765 447.395Q718.973 444.849 718.118 442.323Q717.263 439.797 716.346 437.293Q715.428 434.789 714.449 432.309Q713.469 429.829 712.429 427.373Q711.388 424.918 710.286 422.49Q709.185 420.061 708.023 417.661Q706.861 415.26 705.64 412.89Q704.419 410.519 703.14 408.179Q701.86 405.84 700.523 403.533Q699.185 401.226 697.791 398.953Q696.397 396.679 694.946 394.442Q693.496 392.204 691.99 390.003Q690.485 387.802 688.925 385.639Q687.365 383.476 685.752 381.353Q684.138 379.23 682.473 377.147Q680.807 375.065 679.09 373.024Q677.374 370.984 675.607 368.986Q673.839 366.989 672.023 365.037Q670.207 363.084 668.343 361.177Q666.479 359.27 664.568 357.41Q662.657 355.551 660.7 353.739Q658.744 351.927 656.742 350.164Q654.741 348.402 652.697 346.69Q650.653 344.977 648.566 343.317Q646.48 341.656 644.353 340.047Q642.226 338.439 640.06 336.884Q637.893 335.329 635.689 333.828Q633.443 332.305 631.161 330.837Q628.879 329.369 626.561 327.957Q624.244 326.546 621.893 325.191Q619.541 323.837 617.158 322.54Q614.774 321.243 612.359 320.006Q609.944 318.768 607.5 317.589Q605.056 316.411 602.583 315.292Q600.111 314.174 597.612 313.117Q595.113 312.059 592.589 311.063Q590.065 310.067 587.517 309.133Q584.969 308.199 582.4 307.327Q579.83 306.456 577.239 305.648Q574.649 304.839 572.04 304.095Q569.43 303.35 566.804 302.669Q564.177 301.989 561.534 301.372Q558.891 300.756 556.234 300.205Q553.578 299.653 550.908 299.167Q548.238 298.681 545.558 298.26Q542.877 297.839 540.187 297.484Q537.497 297.129 534.798 296.84Q532.1 296.551 529.396 296.328Q526.692 296.105 523.983 295.948Q521.274 295.791 518.562 295.7Q515.849 295.61 513.136 295.585Q510.423 295.561 507.709 295.603Q504.996 295.646 502.285 295.754Q499.573 295.863 496.866 296.037Q494.158 296.212 491.455 296.453Q488.752 296.694 486.056 297.001Q483.36 297.308 480.672 297.681Q477.984 298.054 475.306 298.493Q472.628 298.931 469.962 299.435Q467.502 299.922 465.054 300.464Q462.606 301.006 460.171 301.603Q457.736 302.2 455.314 302.851Q452.893 303.502 450.487 304.207Q448.08 304.912 445.69 305.67Q443.3 306.429 440.928 307.24Q438.556 308.052 436.202 308.917Q433.848 309.781 431.515 310.698Q429.181 311.615 426.868 312.584Q424.556 313.553 422.265 314.573Q419.975 315.593 417.708 316.665Q415.441 317.736 413.198 318.857Q410.956 319.979 408.739 321.151Q406.522 322.322 404.332 323.543Q402.142 324.763 399.979 326.033Q397.817 327.302 395.684 328.62Q393.55 329.937 391.447 331.302Q389.343 332.666 387.271 334.078Q385.198 335.489 383.158 336.947Q381.118 338.404 379.11 339.906Q377.103 341.409 375.13 342.956Q373.157 344.503 371.219 346.094Q369.28 347.685 367.378 349.319Q365.476 350.952 363.611 352.628Q361.746 354.304 359.919 356.021Q358.092 357.738 356.303 359.496Q354.515 361.253 352.766 363.05Q351.018 364.847 349.31 366.683Q347.602 368.518 345.935 370.392Q344.268 372.265 342.644 374.175Q341.02 376.085 339.439 378.031Q337.857 379.977 336.32 381.958C331.418 388.268 326.365 394.899 322.289 401.774C319.896 405.81 318.087 410.4 315.374 414.217C313.178 417.305 309.835 419.767 306.023 420.328Q305.472 420.413 304.915 420.439Q304.358 420.465 303.801 420.432Q303.245 420.399 302.695 420.308Q302.145 420.217 301.607 420.069Q301.07 419.921 300.551 419.717Q300.032 419.512 299.538 419.255Q299.043 418.997 298.578 418.689Q298.114 418.381 297.684 418.026C294.301 415.237 293.801 412.326 293.289 408.233C295.137 403.477 298.067 398.813 300.675 394.421Q304.353 388.14 308.384 382.08Q312.414 376.019 316.784 370.198Q321.154 364.377 325.848 358.815Q330.543 353.252 335.547 347.967Q337.227 346.193 338.943 344.453Q340.659 342.712 342.41 341.007Q344.16 339.302 345.945 337.633Q347.729 335.963 349.547 334.33Q351.365 332.697 353.215 331.101Q355.066 329.504 356.948 327.946Q358.83 326.387 360.743 324.867Q362.657 323.346 364.6 321.865Q366.544 320.384 368.517 318.942Q370.49 317.5 372.491 316.098Q374.493 314.696 376.522 313.335Q378.552 311.973 380.608 310.653Q382.665 309.333 384.748 308.055Q386.83 306.776 388.938 305.54Q391.046 304.304 393.179 303.111Q395.312 301.917 397.468 300.767Q399.624 299.617 401.803 298.511Q403.982 297.404 406.182 296.342Q408.383 295.28 410.605 294.262Q412.827 293.244 415.069 292.271Q417.31 291.299 419.571 290.371Q421.832 289.444 424.112 288.562Q426.391 287.681 428.687 286.845Q430.984 286.01 433.297 285.221Q435.609 284.432 437.938 283.69Q440.266 282.948 442.609 282.253Q444.952 281.557 447.308 280.91Q449.664 280.262 452.033 279.662Q454.402 279.062 456.783 278.509Q459.163 277.957 461.555 277.453Q463.946 276.949 466.347 276.493Q468.747 276.037 471.157 275.63C484.124 273.455 497.15 272.687 510.272 272.231Z"/>
	<path fill="#183654" d="M477.753 324.565C485.461 325.525 493.83 324.943 501.622 324.918Q524.524 324.678 547.425 324.976C564.426 342.314 580.843 360.47 597.085 378.524L597.361 396.74C605.623 397.034 631.443 394.867 637.235 398.518C638.792 400.518 638.593 403.074 638.624 405.487C638.672 409.335 639.402 414.369 636.331 417.307C632.097 421.357 612.214 419.493 605.815 419.454C583.524 443.685 559.66 466.843 536.229 489.986C549.356 501.975 561.799 514.741 574.496 527.181C581.714 534.252 589.36 540.913 596.315 548.243C596.697 566.961 596.451 585.725 596.434 604.448L635.549 604.377L635.496 627.202C622.559 626.652 609.469 627.009 596.514 626.991C596.469 633.692 596.643 640.466 595.892 647.133C590.182 654.609 582.889 661.236 576.249 667.906L545.859 698.487C537.882 697.795 529.684 698.053 521.679 698.039Q499.563 697.983 477.448 698.238C466.154 685.642 452.465 673.215 440.352 661.177L428.503 649.746Q428.419 638.439 428.838 627.14C422.34 627.125 391.794 628.361 388.196 625.616C384.428 622.74 384.189 616.694 383.583 612.424C385.543 608.809 387.034 606.796 390.645 604.585C399.173 603.764 408.133 604.399 416.706 604.527C427.348 592.847 438.984 582.011 450.013 570.693C458.982 561.487 467.934 550.78 477.841 542.63C479.356 541.382 480.688 540.437 482.709 540.335C485.641 540.188 488.568 541.674 490.603 543.705C491.791 544.891 492.688 546.327 492.983 547.996C494.425 556.161 493.246 565.985 493.161 574.363Q492.916 597.795 493.1 621.228C496.87 624.674 500.074 629.224 503.197 633.281Q511.082 633.359 518.962 633.054C522.56 628.585 526.622 624.528 530.603 620.405Q530.751 597.84 530.504 575.275C518.817 563.358 506.503 552.164 494.354 540.728L428.096 478.428L427.923 420.374C418.812 420.144 393.893 422.467 387.658 417.284C385.207 415.247 384.091 412.394 383.924 409.26C383.762 406.209 384.5 403.337 386.683 401.122C388.376 399.405 390.616 398.442 392.956 397.986C400.064 396.601 419.64 397.601 427.925 397.684Q427.928 387.832 427.538 377.987C435.495 368.593 444.522 359.783 453.01 350.861C461.29 342.157 469.286 333.072 477.753 324.565Z"/>
	<path fill="#FEFEFE" d="M513.254 389.723L517.82 389.612L531.442 403.345C530.966 430.632 531.376 457.989 531.453 485.281L520.926 475.25C511.514 466.252 501.873 457.493 492.564 448.389L492.472 402.721Q499.138 396.737 505.098 390.049L513.254 389.723Z"/>
	<path fill="#FEFEFE" d="M487.9 347.352C504.085 347.577 520.297 347.396 536.484 347.396C549.201 359.881 562.206 372.872 573.608 386.572C573.779 397.435 573.571 408.318 573.5 419.183Q563.296 429.045 553.456 439.27L553.554 393.496C545.301 384.843 536.837 376.387 528.656 367.667C517.51 367.559 505.182 366.431 494.186 368.026C486.771 376.715 478.595 385.113 470.533 393.205L470.478 459.412Q504.504 490.545 537.458 522.81C549.37 534.35 561.534 545.671 572.929 557.726C572.119 584.76 572.458 611.923 572.609 638.967C560.602 651.472 548.176 663.709 535.771 675.821C530.909 676.615 524.958 675.994 519.976 675.976L487.251 675.95C475.764 663.505 463.387 651.612 451.437 639.591L451.352 601.967C458.258 597.134 463.7 589.616 470.078 583.96C470.67 599.482 470.454 615.063 470.47 630.596C473.083 634.1 476.58 637.03 479.719 640.059C484.966 645.123 490.253 650.237 495.019 655.762C505.979 655.544 516.907 655.717 527.864 655.907C536.306 647.513 545.775 639.201 553.212 629.947C552.773 608.322 553.139 586.64 553.232 565.009C538.206 551.217 523.897 536.602 509.067 522.591C489.706 504.298 469.845 486.557 450.723 468.006L450.547 386.219C463.345 373.606 475.385 360.245 487.9 347.352Z"/>
</svg>
