<svg width="48" height="48" viewBox="0 0 48 48" fill="none" xmlns="http://www.w3.org/2000/svg"><path style="transform-box: fill-box; transform-origin: 50% 50%; transform: rotate(0deg);" class="fill-[var(--grey)]" d="M22.1434 46.3318C18.9914 45.6618 16.5834 43.3998 15.5835 40.5678C15.0555 39.0719 14.9215 37.4179 15.2755 35.7519C15.6295 34.0859 16.4254 32.6299 17.5154 31.478C19.5814 29.298 22.7014 28.21 25.8533 28.88C29.0053 29.55 31.4133 31.8119 32.4133 34.6439C30.3473 36.8239 27.2273 37.9119 24.0754 37.2419L23.9214 37.9699C27.0733 38.6399 29.4813 40.9018 30.4813 43.7338C28.4153 45.9138 25.2953 47.0018 22.1434 46.3318Z" fill="#989898"></path><path style="transform-box: fill-box; transform-origin: 50% 50%; transform: rotate(0deg);" class="fill-[var(--grey)]" d="M0.0493136 27.5841C-0.286683 24.3782 1.1193 21.3902 3.50327 19.5622C4.76126 18.5982 6.29324 17.9583 7.98722 17.7803C9.6812 17.6023 11.3112 17.9083 12.7432 18.5902C15.4551 19.8822 17.4531 22.5122 17.7891 25.7182C18.1251 28.9241 16.7191 31.9121 14.3352 33.7401C11.6232 32.4481 9.62521 29.8181 9.28921 26.6122L8.54922 26.6902C8.88521 29.8961 7.47923 32.8841 5.09526 34.7121C2.38329 33.4201 0.38531 30.7901 0.0493136 27.5841Z" fill="#989898"></path><path style="transform-box: fill-box; transform-origin: 50% 50%; transform: rotate(0deg);" class="fill-[var(--grey)]" d="M11.0481 0.773239C13.992 -0.538746 17.27 -0.122751 19.744 1.57923C21.05 2.47922 22.1319 3.73721 22.8239 5.29319C23.5159 6.84917 23.7279 8.49515 23.5219 10.0671C23.1319 13.0451 21.248 15.7591 18.302 17.0691C15.356 18.379 12.0801 17.965 9.60608 16.2631C9.99608 13.2851 11.8801 10.5711 14.826 9.26114L14.524 8.58115C11.5801 9.89314 8.3021 9.47714 5.82812 7.77516C6.21812 4.79719 8.1021 2.08322 11.0481 0.773239Z" fill="#989898"></path><path style="transform-box: fill-box; transform-origin: 50% 50%; transform: rotate(0deg);" class="fill-[var(--grey)]" d="M39.9443 2.95046C42.1002 5.34643 42.7182 8.5904 41.8642 11.4704C41.4122 12.9903 40.5483 14.4083 39.2843 15.5483C38.0203 16.6883 36.5183 17.3983 34.9603 17.6883C32.0064 18.2363 28.8444 17.2843 26.6884 14.8883C24.5324 12.4924 23.9144 9.24839 24.7684 6.36842C27.7224 5.82043 30.8844 6.77242 33.0403 9.16839L33.5923 8.6704C31.4364 6.27442 30.8184 3.03046 31.6724 0.150493C34.6263 -0.3975 37.7883 0.554489 39.9443 2.95046Z" fill="#989898"></path><path style="transform-box: fill-box; transform-origin: 50% 50%; transform: rotate(0deg);" class="fill-[var(--grey)]" d="M46.8006 31.1103C45.1886 33.9023 42.2947 35.4923 39.2907 35.5703C37.7047 35.6103 36.0907 35.2263 34.6167 34.3763C33.1428 33.5263 32.0028 32.3183 31.2448 30.9243C29.8108 28.2843 29.7408 24.9824 31.3508 22.1904C32.9608 19.3985 35.8567 17.8085 38.8607 17.7305C40.2947 20.3704 40.3647 23.6724 38.7547 26.4644L39.3987 26.8364C41.0107 24.0444 43.9046 22.4544 46.9086 22.3764C48.3426 25.0164 48.4106 28.3183 46.8006 31.1103Z" fill="#989898"></path></svg>